<!-- public/google-icon.svg -->
<svg xmlns="http://www.w3.org/2000/svg" viewBox="0 0 48 48" width="48" height="48">
  <path fill="#4285F4" d="M24 9.5c3.8 0 7.2 1.6 9.6 4.2l7.2-7.2C36.6 2.3 30.7 0 24 0 14.6 0 6.7 5.7 3.1 14.1l8.3 6.5C13.3 13.8 18.2 9.5 24 9.5z"/>
  <path fill="#34A853" d="M24 38.5c-5.8 0-10.7-4.3-12.6-10.1l-8.3 6.5C6.7 42.3 14.6 48 24 48c6.7 0 12.6-2.3 17.1-6.5l-7.2-7.2c-2.4 2.6-5.8 4.2-9.9 4.2z"/>
  <path fill="#FBBC05" d="M43.6 24.3c0-1.3-.1-2.6-.4-3.8H24v7.6h10.8c-.5 2.5-1.9 4.7-4 6.2l7.2 7.2c4.2-3.9 5.6-9.6 5.6-17.2z"/>
  <path fill="#EA4335" d="M11.4 27.7c-.5-1.5-.8-3.1-.8-4.7s.3-3.2.8-4.7l-8.3-6.5c-1.8 3.6-2.8 7.6-2.8 11.9s1 8.3 2.8 11.9l8.3-6.5z"/>
</svg>